# xmcd CD database file
#
# Track frame offsets:
#	150
#	19137
#	35006
#	56513
#	69322
#	84758
#	103235
#	116047
#	137579
#	154041
#
# Disc length: 2232 seconds
#
# Revision: 0
# Processed by: cddbd v1.5.1PL0 Copyright (c) Steve Scherf et al.
# Submitted via: CDex 1.51
#
DISCID=7d08b60a
DTITLE=Frank Sinatra - Trilogy - Disc 2 - The Present
DYEAR=1980
DGENRE=Jazz
TTITLE0=You and Me (We Wanted It All)
TTITLE1=Just the Way You Are
TTITLE2=Something
TTITLE3=MacArthur Park
TTITLE4=Theme from New York, New York
TTITLE5=Summer Me, Winter Me
TTITLE6=Song Sung Blue
TTITLE7=For the Good Times
TTITLE8=Love Me Tender
TTITLE9=That's What God Looks Like
EXTD=YEAR: 1980
EXTT0=
EXTT1=
EXTT2=
EXTT3=
EXTT4=
EXTT5=
EXTT6=
EXTT7=
EXTT8=
EXTT9=
PLAYORDER=
